# xmcd CD database file
#
# Track frame offsets:
#	150
#	13575
#	34350
#	56625
#	81075
#	111750
#
# Disc length: 2789 seconds
#
# Revision: 0
# Processed by: cddbd v1.5.2PL0 Copyright (c) Steve Scherf et al.
# Submitted via: CDex 1.51
#
DISCID=460ae306
DTITLE=Jon Anderson and Vangelis - Private Collection
DYEAR=1983
DGENRE=New Age
TTITLE0=Italian Song
TTITLE1=And When The Night Comes
TTITLE2=Deborah
TTITLE3=Polonaise
TTITLE4=He Is Sailing
TTITLE5=Horizon
EXTD=YEAR: 1983
EXTT0=
EXTT1=
EXTT2=
EXTT3=
EXTT4=
EXTT5=
PLAYORDER=
